General
Complete name                    : Katy Perry - E.T. ft. Kanye West [apels1nen].mp4
Format                           : MPEG-4
Format profile                   : Base Media / Version 2
Codec ID                         : mp42
File size                        : 111 MiB
Duration                         : 5mn 8s
Overall bit rate                 : 3 007 Kbps

Video
ID                               : 1
Format                           : AVC
Format/Info                      : Advanced Video Codec
Format profile                   : High@L4.0
Format settings, CABAC           : Yes
Format settings, ReFrames        : 1 frame
Format settings, GOP             : M=1, N=48
Codec ID                         : avc1
Codec ID/Info                    : Advanced Video Coding
Duration                         : 5mn 8s
Bit rate mode                    : Variable
Bit rate                         : 2 876 Kbps
Maximum bit rate                 : 15.3 Mbps
Width                            : 1 920 pixels
Height                           : 1 080 pixels
Display aspect ratio             : 16:9
Frame rate mode                  : Variable
Frame rate                       : 23.976 fps
Minimum frame rate               : 17.241 fps
Maximum frame rate               : 24.390 fps
Color space                      : YUV
Chroma subsampling               : 4:2:0
Bit depth                        : 8 bits
Scan type                        : Progressive
Bits/(Pixel*Frame)               : 0.058
Stream size                      : 106 MiB (96%)


Audio
ID                               : 2
Format                           : AAC
Format/Info                      : Advanced Audio Codec
Format profile                   : LC
Codec ID                         : 40
Duration                         : 5mn 8s
Bit rate mode                    : Variable
Bit rate                         : 125 Kbps
Maximum bit rate                 : 156 Kbps
Channel(s)                       : 2 channels
Channel positions                : Front: L R
Sampling rate                    : 44.1 KHz
Stream size                      : 4.60 MiB (4%)

Screenshots:  
http://imgden.com/11741/thumbs20110331195333.jpg